<svg width="20" height="25" viewBox="0 0 20 25" fill="none" xmlns="http://www.w3.org/2000/svg">
<path d="M19.5078 18.3086C19.4766 18.4023 19.4453 18.4961 19.4141 18.5898C19.3828 18.6836 19.3516 18.7773 19.3203 18.8711C19.0234 19.6836 18.6562 20.4492 18.2188 21.168C17.7969 21.8867 17.3125 22.5742 16.7656 23.2305C16.6719 23.3711 16.5625 23.5039 16.4375 23.6289C16.3281 23.7383 16.2109 23.8398 16.0859 23.9336C15.8359 24.1523 15.5703 24.3242 15.2891 24.4492C15.0078 24.5742 14.7031 24.6445 14.375 24.6602C14.125 24.6602 13.8828 24.6367 13.6484 24.5898C13.4141 24.543 13.1797 24.4727 12.9453 24.3789C12.7734 24.3164 12.6094 24.2461 12.4531 24.168C12.2969 24.0898 12.1328 24.0273 11.9609 23.9805C11.4141 23.7773 10.8672 23.6836 10.3203 23.6992C9.78906 23.7148 9.25781 23.832 8.72656 24.0508C8.53906 24.1289 8.34375 24.207 8.14062 24.2852C7.95312 24.3633 7.75781 24.4414 7.55469 24.5195C7.33594 24.5977 7.10938 24.6523 6.875 24.6836C6.64062 24.6992 6.39844 24.6836 6.14844 24.6367C5.94531 24.6055 5.75 24.543 5.5625 24.4492C5.375 24.3398 5.19531 24.2227 5.02344 24.0977C4.82031 23.9414 4.625 23.7695 4.4375 23.582C4.26562 23.3945 4.09375 23.1914 3.92188 22.9727C3.14062 22.0039 2.48438 20.9648 1.95312 19.8555C1.4375 18.7305 1.04688 17.5508 0.78125 16.3164C0.671875 15.7852 0.59375 15.2539 0.546875 14.7227C0.5 14.1758 0.492188 13.6289 0.523438 13.082C0.570312 12.4258 0.671875 11.793 0.828125 11.1836C0.984375 10.5586 1.23438 9.96484 1.57812 9.40234C2.01562 8.69922 2.53125 8.12109 3.125 7.66797C3.73438 7.19922 4.4375 6.87109 5.23438 6.68359C5.71875 6.55859 6.19531 6.51953 6.66406 6.56641C7.13281 6.61328 7.59375 6.72266 8.04688 6.89453C8.28125 6.98828 8.51562 7.08203 8.75 7.17578C9 7.26953 9.25 7.36328 9.5 7.45703C9.71875 7.55078 9.9375 7.59766 10.1562 7.59766C10.375 7.59766 10.5938 7.55078 10.8125 7.45703C11.0625 7.36328 11.3125 7.26953 11.5625 7.17578C11.8125 7.08203 12.0547 6.98828 12.2891 6.89453C12.5547 6.80078 12.8125 6.72266 13.0625 6.66016C13.3281 6.58203 13.5938 6.52734 13.8594 6.49609C14.2656 6.46484 14.6641 6.48047 15.0547 6.54297C15.4453 6.58984 15.8281 6.67578 16.2031 6.80078C16.75 6.98828 17.2422 7.24609 17.6797 7.57422C18.1172 7.90234 18.5 8.30859 18.8281 8.79297C18.8438 8.79297 18.8516 8.80078 18.8516 8.81641C18.8672 8.83203 18.8828 8.84766 18.8984 8.86328C18.0547 9.45703 17.4062 10.1602 16.9531 10.9727C16.5156 11.7695 16.3281 12.707 16.3906 13.7852C16.4688 14.8477 16.7734 15.7539 17.3047 16.5039C17.8516 17.2383 18.5859 17.8398 19.5078 18.3086ZM10.1094 6.23828C10.3594 6.23828 10.6016 6.21484 10.8359 6.16797C11.0703 6.12109 11.3047 6.05078 11.5391 5.95703C12.5859 5.53516 13.375 4.83984 13.9062 3.87109C14.4375 2.90234 14.6953 1.98828 14.6797 1.12891C14.6797 1.05078 14.6719 0.980469 14.6562 0.917969C14.6562 0.839844 14.6562 0.761719 14.6562 0.683594C14.5469 0.699219 14.4453 0.714844 14.3516 0.730469C14.2578 0.746094 14.1641 0.761719 14.0703 0.777344C13.3047 0.964844 12.625 1.28516 12.0312 1.73828C11.4531 2.17578 10.9766 2.74609 10.6016 3.44922C10.3672 3.85547 10.1875 4.28516 10.0625 4.73828C9.95312 5.17578 9.92188 5.62891 9.96875 6.09766C9.96875 6.16016 9.97656 6.19922 9.99219 6.21484C10.0234 6.23047 10.0625 6.23828 10.1094 6.23828Z" fill="#949494"/>
</svg>
